<svg width="65" height="65" viewBox="0 0 65 65" fill="none" xmlns="http://www.w3.org/2000/svg">
<rect x="1.12128" y="1.12128" width="61.9524" height="61.9524" rx="30.9762" fill="#D7E2FF"/>
<path d="M45.9319 32.0973C45.9319 24.4564 39.7378 18.2622 32.0968 18.2622C24.4559 18.2622 18.2617 24.4564 18.2617 32.0973C18.2617 39.0028 23.321 44.7264 29.9351 45.7643V36.0965H26.4223V32.0973H29.9351V29.0493C29.9351 25.5819 32.0005 23.6665 35.1608 23.6665C36.6745 23.6665 38.2577 23.9368 38.2577 23.9368V27.3415H36.5131C34.7945 27.3415 34.2586 28.408 34.2586 29.5021V32.0973H38.0956L37.4823 36.0965H34.2586V45.7643C40.8726 44.7264 45.9319 39.0028 45.9319 32.0973Z" stroke="#1778F2" stroke-width="2.21362" stroke-linejoin="round"/>
<rect x="1.12128" y="1.12128" width="61.9524" height="61.9524" rx="30.9762" stroke="white" stroke-width="2.24256"/>
</svg>
