<svg width="69" height="69" viewBox="0 0 69 69" fill="none" xmlns="http://www.w3.org/2000/svg">
<path d="M34.5918 64.0807C36.6726 64.0807 38.3595 62.3938 38.3595 60.313C38.3595 58.2322 36.6726 56.5454 34.5918 56.5454C32.511 56.5454 30.8242 58.2322 30.8242 60.313C30.8242 62.3938 32.511 64.0807 34.5918 64.0807Z" fill="url(#paint0_radial_185012_50499)"/>
<path d="M39.2221 47.7104H30.125C28.658 47.7104 27.4688 48.8997 27.4688 50.3667V59.3321C27.4688 60.7991 28.658 61.9883 30.125 61.9883H39.2221C40.6891 61.9883 41.8784 60.7991 41.8784 59.3321V50.3667C41.8784 48.8997 40.6891 47.7104 39.2221 47.7104Z" fill="url(#paint1_linear_185012_50499)"/>
<path d="M39.2221 47.7104H30.125C28.658 47.7104 27.4688 48.8997 27.4688 50.3667V59.3321C27.4688 60.7991 28.658 61.9883 30.125 61.9883H39.2221C40.6891 61.9883 41.8784 60.7991 41.8784 59.3321V50.3667C41.8784 48.8997 40.6891 47.7104 39.2221 47.7104Z" fill="url(#paint2_linear_185012_50499)"/>
<path d="M39.2221 47.7104H30.125C28.658 47.7104 27.4688 48.8997 27.4688 50.3667V59.3321C27.4688 60.7991 28.658 61.9883 30.125 61.9883H39.2221C40.6891 61.9883 41.8784 60.7991 41.8784 59.3321V50.3667C41.8784 48.8997 40.6891 47.7104 39.2221 47.7104Z" fill="url(#paint3_radial_185012_50499)"/>
<path d="M39.2221 47.7104H30.125C28.658 47.7104 27.4688 48.8997 27.4688 50.3667V59.3321C27.4688 60.7991 28.658 61.9883 30.125 61.9883H39.2221C40.6891 61.9883 41.8784 60.7991 41.8784 59.3321V50.3667C41.8784 48.8997 40.6891 47.7104 39.2221 47.7104Z" fill="url(#paint4_linear_185012_50499)"/>
<g filter="url(#filter0_i_185012_50499)">
<path d="M34.3794 49.4036H34.4941C35.6756 49.3972 38.3914 49.3526 39.4815 49.155C40.6502 48.9425 40.8011 48.3581 41.0094 47.4444C42.2886 41.8046 44.4349 39.6371 45.8714 38.1879C46.0924 37.9647 46.2964 37.7565 46.4791 37.5589C47.1017 36.8746 47.6415 36.2711 48.0516 35.8057C50.5066 33.1991 52.1466 29.932 52.7701 26.406C53.3936 22.88 52.9735 19.2486 51.5612 15.9582C50.149 12.6677 47.8062 9.86151 44.8208 7.8844C41.8354 5.9073 38.3374 4.84543 34.7567 4.82929C31.176 4.81315 27.6686 5.84343 24.6655 7.79354C21.6624 9.74365 19.2944 12.5286 17.8526 15.8062C16.4107 19.0838 15.9578 22.7112 16.5495 26.2427C17.1412 29.7742 18.7517 33.056 21.1831 35.6846C21.6081 36.1649 22.1861 36.813 22.8661 37.5589C23.0624 37.7745 23.2651 37.9842 23.4739 38.1879C24.9082 39.6371 27.0566 41.8067 28.3359 47.4444C28.5441 48.3581 28.695 48.9425 29.8637 49.155C30.9496 49.3526 33.149 49.3972 34.2625 49.4015L34.3794 49.4036Z" fill="url(#paint5_radial_185012_50499)"/>
<path d="M34.3794 49.4036H34.4941C35.6756 49.3972 38.3914 49.3526 39.4815 49.155C40.6502 48.9425 40.8011 48.3581 41.0094 47.4444C42.2886 41.8046 44.4349 39.6371 45.8714 38.1879C46.0924 37.9647 46.2964 37.7565 46.4791 37.5589C47.1017 36.8746 47.6415 36.2711 48.0516 35.8057C50.5066 33.1991 52.1466 29.932 52.7701 26.406C53.3936 22.88 52.9735 19.2486 51.5612 15.9582C50.149 12.6677 47.8062 9.86151 44.8208 7.8844C41.8354 5.9073 38.3374 4.84543 34.7567 4.82929C31.176 4.81315 27.6686 5.84343 24.6655 7.79354C21.6624 9.74365 19.2944 12.5286 17.8526 15.8062C16.4107 19.0838 15.9578 22.7112 16.5495 26.2427C17.1412 29.7742 18.7517 33.056 21.1831 35.6846C21.6081 36.1649 22.1861 36.813 22.8661 37.5589C23.0624 37.7745 23.2651 37.9842 23.4739 38.1879C24.9082 39.6371 27.0566 41.8067 28.3359 47.4444C28.5441 48.3581 28.695 48.9425 29.8637 49.155C30.9496 49.3526 33.149 49.3972 34.2625 49.4015L34.3794 49.4036Z" fill="url(#paint6_radial_185012_50499)"/>
</g>
<path d="M37.9782 22.4428C41.884 22.4428 45.0503 19.2766 45.0503 15.3708C45.0503 11.4651 41.884 8.29883 37.9782 8.29883C34.0725 8.29883 30.9062 11.4651 30.9062 15.3708C30.9062 19.2766 34.0725 22.4428 37.9782 22.4428Z" fill="url(#paint7_linear_185012_50499)"/>
<g filter="url(#filter1_i_185012_50499)">
<path d="M33.7644 49.3972C33.69 44.7817 33.3224 41.7429 32.7614 39.6264C32.1175 37.189 31.2144 35.9714 30.2581 35.0088L30.2475 34.996L30.2348 34.9854C29.3127 34.1133 28.6736 32.9846 28.4001 31.7452C28.1266 30.5059 28.2312 29.213 28.7006 28.0338C29.1699 26.8546 29.9823 25.8434 31.0326 25.131C32.0829 24.4185 33.3229 24.0377 34.5921 24.0377C35.8612 24.0377 37.1012 24.4185 38.1515 25.131C39.2019 25.8434 40.0142 26.8546 40.4836 28.0338C40.9529 29.213 41.0576 30.5059 40.7841 31.7452C40.5105 32.9846 39.8714 34.1133 38.9494 34.9854L38.9366 34.996L38.9239 35.0088C37.9867 35.9565 37.0709 37.0913 36.4185 39.5095C35.8533 41.6027 35.4835 44.652 35.4091 49.3929C36.0509 49.3823 36.818 49.3632 37.5362 49.3292C37.6127 44.7222 37.974 41.9002 38.4713 40.0642C39.0068 38.073 39.6974 37.2485 40.422 36.5154C41.6493 35.3494 42.4989 33.8423 42.861 32.1885C43.2232 30.5348 43.0812 28.8105 42.4534 27.2383C41.8257 25.6661 40.741 24.3182 39.3395 23.3687C37.9379 22.4192 36.2839 21.9116 34.591 21.9116C32.8981 21.9116 31.2441 22.4192 29.8425 23.3687C28.441 24.3182 27.3563 25.6661 26.7286 27.2383C26.1008 28.8105 25.9588 30.5348 26.321 32.1885C26.6831 33.8423 27.5327 35.3494 28.76 36.5154C29.4676 37.2315 30.1668 38.1262 30.7086 40.1704C31.2016 42.0383 31.5586 44.8539 31.6373 49.3292C32.3746 49.3717 33.1503 49.3887 33.7623 49.3972H33.7644Z" fill="#FFAD55"/>
</g>
<g filter="url(#filter2_f_185012_50499)">
<path d="M36.744 48.9161C36.744 38.7778 38.2974 37.1585 39.9634 35.4776C41.04 34.4594 41.7863 33.1415 42.1056 31.6945C42.425 30.2475 42.3028 28.7379 41.7549 27.3611C41.2069 25.9843 40.2584 24.8036 39.0321 23.9718C37.8057 23.14 36.358 22.6953 34.8762 22.6953C33.3943 22.6953 31.9466 23.14 30.7202 23.9718C29.4939 24.8036 28.5454 25.9843 27.9974 27.3611C27.4495 28.7379 27.3273 30.2475 27.6467 31.6945C27.9661 33.1415 28.7123 34.4594 29.7889 35.4776C31.4549 37.1585 32.9998 40.0698 32.9998 48.9161" stroke="url(#paint8_linear_185012_50499)" stroke-width="0.762549"/>
</g>
<g filter="url(#filter3_f_185012_50499)">
<path d="M40.4648 51.917L28.4122 53.8055C27.7919 53.9027 27.3679 54.4843 27.465 55.1046C27.5622 55.7249 28.1439 56.149 28.7642 56.0518L40.8168 54.1633C41.4371 54.0662 41.8612 53.4845 41.764 52.8642C41.6668 52.2439 41.0851 51.8198 40.4648 51.917Z" fill="#7E6693"/>
</g>
<g filter="url(#filter4_f_185012_50499)">
<path d="M40.4648 56.9546L28.4122 58.8431C27.7919 58.9403 27.3679 59.5219 27.465 60.1422C27.5622 60.7625 28.1439 61.1866 28.7642 61.0894L40.8168 59.2009C41.4371 59.1037 41.8612 58.5221 41.764 57.9018C41.6668 57.2815 41.0851 56.8574 40.4648 56.9546Z" fill="#7E6693"/>
</g>
<path d="M42.0133 56.3985L26.8599 58.7729C26.221 58.873 25.7843 59.472 25.8844 60.1109C25.9845 60.7497 26.5835 61.1865 27.2224 61.0864L42.3757 58.7121C43.0146 58.612 43.4514 58.0129 43.3513 57.3741C43.2512 56.7352 42.6521 56.2984 42.0133 56.3985Z" fill="url(#paint9_linear_185012_50499)"/>
<path d="M42.0133 56.3985L26.8599 58.7729C26.221 58.873 25.7843 59.472 25.8844 60.1109C25.9845 60.7497 26.5835 61.1865 27.2224 61.0864L42.3757 58.7121C43.0146 58.612 43.4514 58.0129 43.3513 57.3741C43.2512 56.7352 42.6521 56.2984 42.0133 56.3985Z" fill="url(#paint10_linear_185012_50499)"/>
<path d="M42.0133 56.3985L26.8599 58.7729C26.221 58.873 25.7843 59.472 25.8844 60.1109C25.9845 60.7497 26.5835 61.1865 27.2224 61.0864L42.3757 58.7121C43.0146 58.612 43.4514 58.0129 43.3513 57.3741C43.2512 56.7352 42.6521 56.2984 42.0133 56.3985Z" fill="url(#paint11_linear_185012_50499)"/>
<path d="M42.0133 56.3985L26.8599 58.7729C26.221 58.873 25.7843 59.472 25.8844 60.1109C25.9845 60.7497 26.5835 61.1865 27.2224 61.0864L42.3757 58.7121C43.0146 58.612 43.4514 58.0129 43.3513 57.3741C43.2512 56.7352 42.6521 56.2984 42.0133 56.3985Z" fill="url(#paint12_radial_185012_50499)"/>
<path d="M42.0133 51.3473L26.8599 53.7216C26.221 53.8217 25.7843 54.4207 25.8844 55.0596C25.9845 55.6985 26.5835 56.1352 27.2224 56.0351L42.3757 53.6608C43.0146 53.5607 43.4514 52.9616 43.3513 52.3228C43.2512 51.6839 42.6521 51.2472 42.0133 51.3473Z" fill="url(#paint13_linear_185012_50499)"/>
<path d="M42.0133 51.3473L26.8599 53.7216C26.221 53.8217 25.7843 54.4207 25.8844 55.0596C25.9845 55.6985 26.5835 56.1352 27.2224 56.0351L42.3757 53.6608C43.0146 53.5607 43.4514 52.9616 43.3513 52.3228C43.2512 51.6839 42.6521 51.2472 42.0133 51.3473Z" fill="url(#paint14_linear_185012_50499)"/>
<path d="M42.0133 51.3473L26.8599 53.7216C26.221 53.8217 25.7843 54.4207 25.8844 55.0596C25.9845 55.6985 26.5835 56.1352 27.2224 56.0351L42.3757 53.6608C43.0146 53.5607 43.4514 52.9616 43.3513 52.3228C43.2512 51.6839 42.6521 51.2472 42.0133 51.3473Z" fill="url(#paint15_linear_185012_50499)"/>
<path d="M42.0133 51.3473L26.8599 53.7216C26.221 53.8217 25.7843 54.4207 25.8844 55.0596C25.9845 55.6985 26.5835 56.1352 27.2224 56.0351L42.3757 53.6608C43.0146 53.5607 43.4514 52.9616 43.3513 52.3228C43.2512 51.6839 42.6521 51.2472 42.0133 51.3473Z" fill="url(#paint16_radial_185012_50499)"/>
<defs>
<filter id="filter0_i_185012_50499" x="16.2969" y="4.8291" width="37.5165" height="45.0322" filterUnits="userSpaceOnUse" color-interpolation-filters="sRGB">
<feFlood flood-opacity="0" result="BackgroundImageFix"/>
<feBlend mode="normal" in="SourceGraphic" in2="BackgroundImageFix" result="shape"/>
<feColorMatrix in="SourceAlpha" type="matrix" values="0 0 0 0 0 0 0 0 0 0 0 0 0 0 0 0 0 0 127 0" result="hardAlpha"/>
<feOffset dx="0.762549" dy="0.45753"/>
<feGaussianBlur stdDeviation="1.5251"/>
<feComposite in2="hardAlpha" operator="arithmetic" k2="-1" k3="1"/>
<feColorMatrix type="matrix" values="0 0 0 0 0.992157 0 0 0 0 0.666667 0 0 0 0 0.309804 0 0 0 1 0"/>
<feBlend mode="normal" in2="shape" result="effect1_innerShadow_185012_50499"/>
</filter>
<filter id="filter1_i_185012_50499" x="26.125" y="21.9116" width="17.6961" height="27.4854" filterUnits="userSpaceOnUse" color-interpolation-filters="sRGB">
<feFlood flood-opacity="0" result="BackgroundImageFix"/>
<feBlend mode="normal" in="SourceGraphic" in2="BackgroundImageFix" result="shape"/>
<feColorMatrix in="SourceAlpha" type="matrix" values="0 0 0 0 0 0 0 0 0 0 0 0 0 0 0 0 0 0 127 0" result="hardAlpha"/>
<feOffset dx="0.762549"/>
<feGaussianBlur stdDeviation="0.762549"/>
<feComposite in2="hardAlpha" operator="arithmetic" k2="-1" k3="1"/>
<feColorMatrix type="matrix" values="0 0 0 0 1 0 0 0 0 0.572549 0 0 0 0 0.254902 0 0 0 1 0"/>
<feBlend mode="normal" in2="shape" result="effect1_innerShadow_185012_50499"/>
</filter>
<filter id="filter2_f_185012_50499" x="26.3273" y="21.5514" width="17.0954" height="28.1271" filterUnits="userSpaceOnUse" color-interpolation-filters="sRGB">
<feFlood flood-opacity="0" result="BackgroundImageFix"/>
<feBlend mode="normal" in="SourceGraphic" in2="BackgroundImageFix" result="shape"/>
<feGaussianBlur stdDeviation="0.381275" result="effect1_foregroundBlur_185012_50499"/>
</filter>
<filter id="filter3_f_185012_50499" x="26.6906" y="51.1408" width="15.8493" height="5.6877" filterUnits="userSpaceOnUse" color-interpolation-filters="sRGB">
<feFlood flood-opacity="0" result="BackgroundImageFix"/>
<feBlend mode="normal" in="SourceGraphic" in2="BackgroundImageFix" result="shape"/>
<feGaussianBlur stdDeviation="0.381275" result="effect1_foregroundBlur_185012_50499"/>
</filter>
<filter id="filter4_f_185012_50499" x="26.6906" y="56.1784" width="15.8493" height="5.68721" filterUnits="userSpaceOnUse" color-interpolation-filters="sRGB">
<feFlood flood-opacity="0" result="BackgroundImageFix"/>
<feBlend mode="normal" in="SourceGraphic" in2="BackgroundImageFix" result="shape"/>
<feGaussianBlur stdDeviation="0.381275" result="effect1_foregroundBlur_185012_50499"/>
</filter>
<radialGradient id="paint0_radial_185012_50499" cx="0" cy="0" r="1" gradientUnits="userSpaceOnUse" gradientTransform="translate(35.5885 62.455) rotate(96.6541) scale(2.0057 4.64554)">
<stop offset="0.268" stop-color="#AC90C6"/>
<stop offset="1" stop-color="#8E6AAA"/>
</radialGradient>
<linearGradient id="paint1_linear_185012_50499" x1="41.8784" y1="55.4242" x2="27.4688" y2="55.4242" gradientUnits="userSpaceOnUse">
<stop stop-color="#CDC2D1"/>
<stop offset="1" stop-color="#947C8D"/>
</linearGradient>
<linearGradient id="paint2_linear_185012_50499" x1="26.7569" y1="56.5101" x2="30.2759" y2="56.5101" gradientUnits="userSpaceOnUse">
<stop stop-color="#8A7B88"/>
<stop offset="1" stop-color="#8A7B88" stop-opacity="0"/>
</linearGradient>
<radialGradient id="paint3_radial_185012_50499" cx="0" cy="0" r="1" gradientUnits="userSpaceOnUse" gradientTransform="translate(37.6454 48.7049) rotate(88.6357) scale(1.75286 7.80389)">
<stop offset="0.229" stop-color="#EDE2EB"/>
<stop offset="1" stop-color="#C8BCCB" stop-opacity="0"/>
</radialGradient>
<linearGradient id="paint4_linear_185012_50499" x1="37.979" y1="61.9883" x2="37.979" y2="59.2981" gradientUnits="userSpaceOnUse">
<stop stop-color="#7E5F9E"/>
<stop offset="1" stop-color="#7E5F9E" stop-opacity="0"/>
</linearGradient>
<radialGradient id="paint5_radial_185012_50499" cx="0" cy="0" r="1" gradientUnits="userSpaceOnUse" gradientTransform="translate(42.4309 17.8624) rotate(138.066) scale(21.0666 17.3713)">
<stop offset="0.286" stop-color="#FFEC87"/>
<stop offset="1" stop-color="#FFCD4B"/>
</radialGradient>
<radialGradient id="paint6_radial_185012_50499" cx="0" cy="0" r="1" gradientUnits="userSpaceOnUse" gradientTransform="translate(44.4221 29.1502) rotate(-147.604) scale(30.9865 29.8048)">
<stop offset="0.622" stop-color="#FFB239" stop-opacity="0"/>
<stop offset="1" stop-color="#FFB239"/>
</radialGradient>
<linearGradient id="paint7_linear_185012_50499" x1="35.5047" y1="17.6531" x2="42.7765" y2="11.9878" gradientUnits="userSpaceOnUse">
<stop stop-color="white" stop-opacity="0"/>
<stop offset="0.594" stop-color="white"/>
</linearGradient>
<linearGradient id="paint8_linear_185012_50499" x1="42.7812" y1="23.9644" x2="34.2684" y2="44.2433" gradientUnits="userSpaceOnUse">
<stop stop-color="#FFBF5C"/>
<stop offset="1" stop-color="#FFBF5C" stop-opacity="0"/>
</linearGradient>
<linearGradient id="paint9_linear_185012_50499" x1="34.2275" y1="57.6378" x2="34.793" y2="60.1626" gradientUnits="userSpaceOnUse">
<stop stop-color="#B1969A"/>
<stop offset="1" stop-color="#DAD2E2"/>
</linearGradient>
<linearGradient id="paint10_linear_185012_50499" x1="36.618" y1="59.5648" x2="36.3536" y2="57.9048" gradientUnits="userSpaceOnUse">
<stop stop-color="#8A68A9"/>
<stop offset="1" stop-color="#DEC2E3" stop-opacity="0"/>
</linearGradient>
<linearGradient id="paint11_linear_185012_50499" x1="25.7023" y1="60.2943" x2="31.5046" y2="59.0668" gradientUnits="userSpaceOnUse">
<stop stop-color="#958387"/>
<stop offset="1" stop-color="#958387" stop-opacity="0"/>
</linearGradient>
<radialGradient id="paint12_radial_185012_50499" cx="0" cy="0" r="1" gradientUnits="userSpaceOnUse" gradientTransform="translate(40.3024 57.4775) rotate(81.4165) scale(1.77972 10.5339)">
<stop offset="0.127" stop-color="#FCF0FC"/>
<stop offset="1" stop-color="#E5C9E3" stop-opacity="0"/>
</radialGradient>
<linearGradient id="paint13_linear_185012_50499" x1="34.2278" y1="52.5886" x2="34.793" y2="55.1113" gradientUnits="userSpaceOnUse">
<stop stop-color="#B1969A"/>
<stop offset="1" stop-color="#DAD2E2"/>
</linearGradient>
<linearGradient id="paint14_linear_185012_50499" x1="36.618" y1="54.5135" x2="36.3536" y2="52.8535" gradientUnits="userSpaceOnUse">
<stop stop-color="#8A68A9"/>
<stop offset="1" stop-color="#DEC2E3" stop-opacity="0"/>
</linearGradient>
<linearGradient id="paint15_linear_185012_50499" x1="25.7026" y1="55.2451" x2="31.5046" y2="54.0155" gradientUnits="userSpaceOnUse">
<stop stop-color="#958387"/>
<stop offset="1" stop-color="#958387" stop-opacity="0"/>
</linearGradient>
<radialGradient id="paint16_radial_185012_50499" cx="0" cy="0" r="1" gradientUnits="userSpaceOnUse" gradientTransform="translate(40.3024 52.4262) rotate(81.4165) scale(1.77971 10.5338)">
<stop offset="0.127" stop-color="#FCF0FC"/>
<stop offset="1" stop-color="#E5C9E3" stop-opacity="0"/>
</radialGradient>
</defs>
</svg>
