<svg width="224" height="68" viewBox="0 0 224 68" fill="none" xmlns="http://www.w3.org/2000/svg">
<path fill-rule="evenodd" clip-rule="evenodd" d="M51.3426 0.00255544C51.4257 0.316875 51.7141 0.240212 51.9169 0.31943C54.5463 1.34416 56.1151 3.97627 55.751 6.75148C55.3722 9.63147 53.2023 11.7704 50.3407 11.8828C49.4464 11.9211 48.9698 12.2559 48.6497 13.0276C47.1738 16.595 44.6568 19.0253 41.2821 20.602C39.9723 21.2127 38.748 22.0458 37.536 22.861C36.9128 23.2826 36.6343 23.1344 36.2579 22.5416C34.4252 19.6539 32.5485 16.7918 30.6864 13.9246C30.5154 13.6588 30.3345 13.4007 30.0022 12.9075C29.6699 15.1512 29.3693 17.1394 29.0809 19.1326C28.8243 20.9061 28.5604 22.677 28.3381 24.4556C28.255 25.1251 27.9837 25.3474 27.3435 25.2912C24.0788 25.0203 20.8116 24.7648 17.5444 24.545C16.9751 24.5041 16.8333 24.292 16.8358 23.7324C16.8602 20.2621 16.7478 16.7893 16.8895 13.3241C17.1095 7.83499 23.0255 4.60235 27.7223 7.36734C32.072 9.93045 36.3899 12.5447 40.681 15.21C41.5778 15.7671 41.9639 15.6521 42.4404 14.7117C43.2248 13.1656 44.1485 11.6963 45.016 10.1962C45.2408 9.81035 45.4461 9.47558 45.1675 8.97472C43.1417 5.3281 45.2995 1.05029 48.5398 0.227434C48.6277 0.204435 48.6913 0.0766633 48.7646 0H51.3426V0.00255544ZM50.0548 8.47129C51.3206 8.48407 52.4521 7.32646 52.474 6.00529C52.4936 4.68668 51.3793 3.49329 50.1135 3.47796C48.8379 3.46263 47.726 4.59724 47.6991 5.94396C47.6723 7.26257 48.7866 8.46107 50.0548 8.47129Z" fill="white"/>
<path fill-rule="evenodd" clip-rule="evenodd" d="M0.00244366 33.5861C0.42764 33.3459 0.271246 32.863 0.378767 32.5026C1.07765 30.1337 2.57806 28.6439 4.88976 28.235C7.23811 27.8185 9.22969 28.6439 10.5688 30.7598C11.0356 31.4958 11.4925 31.8203 12.3405 31.7488C13.3497 31.6619 14.3736 31.6593 15.3828 31.7488C16.3505 31.8331 16.5655 31.4242 16.5289 30.4966C16.4654 28.9199 16.5118 27.3381 16.5118 25.4189C17.24 26.2341 17.7849 26.8347 18.3201 27.4454C20.0355 29.3978 21.7534 31.3501 23.4567 33.3127C23.7181 33.6143 24.18 33.8775 23.7059 34.4141C21.382 37.0488 19.0752 39.6988 16.5118 42.6273C16.5118 40.6877 16.4678 39.088 16.5289 37.4909C16.5631 36.6169 16.2796 36.3102 15.4683 36.4048C15.004 36.461 14.53 36.4457 14.0632 36.4099C12.4113 36.2821 11.1773 36.5377 9.90658 38.1221C7.04262 41.6971 1.61281 40.1409 0.361661 35.6433C0.261471 35.283 0.437414 34.8 0 34.5572V33.5759L0.00244366 33.5861ZM5.77192 36.5581C7.09638 36.6118 8.20091 35.5385 8.23757 34.1688C8.27422 32.7761 7.25522 31.6568 5.92587 31.6312C4.64295 31.6057 3.5824 32.6278 3.52131 33.949C3.45777 35.3417 4.46212 36.5096 5.76947 36.5581H5.77192Z" fill="white"/>
<path fill-rule="evenodd" clip-rule="evenodd" d="M29.9998 55.1386C32.16 51.814 34.1565 48.8471 36.0308 45.801C36.6368 44.8172 37.0864 44.8504 37.9393 45.3973C40.3365 46.928 42.7753 48.3897 45.2262 49.8258C45.974 50.2628 46.5092 50.825 46.9221 51.5993C47.5893 52.8464 48.3639 54.027 49.0261 55.2766C49.3707 55.9334 49.7886 56.1276 50.4997 56.1378C53.3099 56.1761 55.6118 58.3329 55.993 61.1771C56.3864 64.1031 54.7247 66.9422 52.0245 67.7216C49.6932 68.3937 47.5868 67.8749 45.9936 65.8715C44.4858 63.9728 44.1877 61.816 45.192 59.58C45.5586 58.7648 45.517 58.1949 45.0527 57.4666C44.1437 56.0432 43.2958 54.5713 42.4967 53.0738C42.0861 52.3046 41.766 52.1641 40.9792 52.6471C36.6808 55.3073 32.3433 57.8985 28.0107 60.4974C22.7788 63.638 16.8652 60.0911 16.8481 53.8123C16.8383 50.7075 16.8725 47.6026 16.8285 44.4977C16.8163 43.6826 17.0875 43.4577 17.8231 43.4091C20.8606 43.2124 23.898 42.9951 26.9257 42.7013C27.9032 42.6067 28.2624 42.829 28.3943 43.9151C28.8415 47.5489 29.4207 51.1649 29.9998 55.1361V55.1386ZM52.7698 62.1201C52.7625 60.7887 51.6482 59.6132 50.3921 59.6183C49.1483 59.6183 48.034 60.8143 48.0365 62.1405C48.0389 63.4719 49.1483 64.6321 50.4141 64.627C51.6824 64.6219 52.7771 63.4566 52.7698 62.1201Z" fill="white"/>
<path fill-rule="evenodd" clip-rule="evenodd" d="M55.0492 34.008C51.5157 32.5438 48.273 31.1562 44.9887 29.8733C44.0332 29.5002 43.9061 29.0837 44.2189 28.1101C45.084 25.4064 45.8562 22.6695 46.6039 19.9276C46.8019 19.2018 47.0047 19.1124 47.6156 19.4855C52.0289 22.1763 56.5105 24.7497 60.87 27.5351C65.618 30.5684 65.5618 37.5473 60.7967 40.5372C56.4836 43.246 52.0875 45.8065 47.7427 48.4616C47.056 48.8807 46.797 48.8398 46.5624 47.9633C45.8293 45.2188 45.0302 42.4896 44.1823 39.7782C43.8915 38.8506 44.1578 38.5005 44.9667 38.176C48.2363 36.865 51.479 35.4876 55.0492 34.0055V34.008Z" fill="white"/>
<path fill-rule="evenodd" clip-rule="evenodd" d="M122.412 26.8091C122.131 30.3842 121.845 33.9644 121.574 37.542C121.506 38.4339 121.481 39.3308 121.435 40.2252C121.379 41.3471 121.628 42.2721 122.828 42.5686C123.338 42.6963 123.341 43.0822 123.341 43.5141C123.343 45.9494 121.208 47.5159 118.598 46.9818C116.836 46.6215 115.746 45.3489 115.809 43.3199C115.905 40.2227 116.183 37.1306 116.374 34.0385C116.516 31.7182 116.67 29.3978 116.76 27.0775C116.811 25.7231 116.222 25.3065 114.986 25.6975C113.542 26.155 113.273 27.4531 112.992 28.7436C112.801 29.6125 112.569 30.4839 113.967 30.2488C114.341 30.1874 114.602 30.3842 114.668 30.8646C114.932 32.7608 114.373 33.9951 112.721 34.8997C112.315 35.122 112.322 35.4491 112.298 35.8094C112.058 39.0651 111.792 42.3156 111.599 45.5712C111.545 46.458 111.247 46.7748 110.402 46.8029C107.083 46.9052 106.304 46.1615 106.443 42.7398C106.536 40.4987 106.722 38.2601 106.907 36.0266C106.971 35.2498 106.795 34.8588 105.979 34.9661C105.27 35.0581 104.969 34.6952 105.053 33.9567C105.138 33.2284 105.182 32.4925 105.29 31.7693C105.38 31.1662 105.71 30.6295 106.277 30.5145C107.186 30.3331 107.469 29.8297 107.44 28.9174C107.42 28.3552 107.562 27.7853 107.672 27.2231C108.51 22.9836 110.666 21.1897 115.233 20.9189C116.408 20.8473 117.579 20.9265 118.732 21.1335C121.215 21.573 122.302 22.93 122.366 25.5723C122.376 25.9837 122.366 26.3901 122.366 26.7989C122.38 26.8015 122.39 26.8015 122.407 26.804L122.412 26.8091Z" fill="white"/>
<path fill-rule="evenodd" clip-rule="evenodd" d="M174.278 44.4111C172.567 46.7724 170.28 47.4419 167.553 46.9104C164.124 46.2434 163.709 42.0065 165.102 39.6427C166.106 37.9382 167.695 37.0924 169.454 36.5532C170.881 36.1162 172.35 35.8325 173.836 35.8453C174.771 35.853 174.957 35.4236 174.891 34.5906C174.806 33.5403 174.745 32.5156 173.445 32.2983C172.003 32.0581 171.069 32.513 170.73 33.9159C170.434 35.1272 169.911 35.6511 168.682 35.4466C166.93 35.1502 166.121 34.5037 166.018 33.0701C165.894 31.3196 166.585 29.8937 167.993 29.0325C171.172 27.0903 174.559 26.9447 177.87 28.5061C180.064 29.5436 180.556 31.7745 180.429 34.1076C180.331 35.9398 180.135 37.7695 179.915 39.5865C179.769 40.8207 179.945 41.7867 181.247 42.1751C181.763 42.3285 181.821 42.7118 181.77 43.2305C181.57 45.3081 180.443 46.7264 178.696 47.033C176.634 47.3933 175.473 46.7238 174.525 44.6411C174.495 44.5747 174.415 44.5364 174.28 44.4137L174.278 44.4111ZM171.531 42.4409C172.924 42.4562 174.439 40.7952 174.424 39.2926C174.422 38.9706 174.388 38.7074 174.014 38.7151C172.709 38.7406 171.441 38.9144 170.48 39.9826C170.045 40.4706 169.923 41.0584 170.187 41.6794C170.441 42.2825 170.947 42.4486 171.531 42.4383V42.4409Z" fill="white"/>
<path fill-rule="evenodd" clip-rule="evenodd" d="M151.621 30.4658C153.373 27.729 155.77 27.2766 158.439 27.6651C161.007 28.0382 162.302 29.5331 162.454 32.362C162.647 35.8425 162.109 39.2847 161.874 42.7447C161.808 43.7209 161.716 44.6946 161.689 45.6758C161.669 46.4374 161.349 46.8105 160.621 46.7926C160.152 46.7823 159.682 46.7926 159.216 46.7542C156.997 46.5754 156.261 45.8164 156.349 43.519C156.447 40.9943 156.691 38.4746 156.867 35.9498C156.894 35.5435 156.909 35.1346 156.909 34.7258C156.909 33.7675 156.899 32.7836 155.846 32.3696C154.722 31.9276 153.295 32.4156 152.601 33.4302C151.926 34.4166 151.665 35.5767 151.447 36.7395C150.915 39.5862 150.68 42.4764 150.536 45.3641C150.477 46.5115 150.084 46.9152 149.053 46.7951C148.745 46.7619 148.427 46.7849 148.117 46.7542C145.925 46.5498 145.06 45.6758 145.165 43.3759C145.348 39.4252 145.671 35.4822 145.939 31.534C145.961 31.1686 145.949 30.7853 146.057 30.4428C146.313 29.6072 145.48 28.2809 146.812 27.9564C148.928 27.4402 150.746 28.2298 151.384 29.7094C151.447 29.8576 151.486 30.0161 151.623 30.4607L151.621 30.4658Z" fill="white"/>
<path fill-rule="evenodd" clip-rule="evenodd" d="M91.8047 30.5373C93.4566 27.8055 95.8147 27.2893 98.4417 27.6369C101.262 28.01 102.532 29.51 102.677 32.505C102.838 35.8603 102.317 39.1747 102.102 42.5121C102.034 43.5675 101.953 44.6255 101.897 45.6834C101.858 46.4117 101.562 46.8308 100.817 46.795C100.272 46.772 99.7197 46.8002 99.1797 46.7388C97.1881 46.5063 96.5674 45.7524 96.5503 43.6314C96.5283 40.9737 97.0219 38.357 97.0928 35.707C97.1001 35.4208 97.1343 35.1346 97.1294 34.8509C97.1123 33.8211 97.1685 32.7324 95.9443 32.3466C94.72 31.9607 93.442 32.436 92.7455 33.5246C92.1273 34.4931 91.8707 35.6099 91.6605 36.7291C91.1205 39.6142 90.8883 42.5428 90.7368 45.4713C90.6855 46.4679 90.3532 46.8998 89.3977 46.7976C88.9725 46.7516 88.5375 46.7899 88.1123 46.7363C86.1037 46.4807 85.285 45.6349 85.3828 43.5317C85.5734 39.4609 85.8911 35.3978 86.1525 31.3321C86.2063 30.5194 86.2356 29.7042 86.3114 28.8916C86.348 28.5083 86.3163 27.9819 86.8539 27.9563C88.0952 27.8975 89.3562 27.7365 90.5218 28.3958C91.2427 28.7996 91.5848 29.5024 91.8047 30.5348V30.5373Z" fill="white"/>
<path fill-rule="evenodd" clip-rule="evenodd" d="M135.846 44.3444C134.534 46.2584 132.799 47.2014 130.545 47.0787C127.811 46.9305 125.7 44.8299 125.707 41.9781C125.714 37.6977 126.203 33.4378 126.467 29.1676C126.523 28.2988 126.892 27.7928 127.809 27.9078C128.077 27.941 128.354 27.9103 128.627 27.9206C131.308 28.0023 132.151 29.0526 131.894 31.8611C131.645 34.5366 131.464 37.2198 131.257 39.8979C131.2 40.6671 131.379 41.3699 131.931 41.9039C132.752 42.6987 134.047 42.5505 134.834 41.5973C135.687 40.5675 135.961 39.2821 136.198 38.0043C136.699 35.3569 136.816 32.6686 136.948 29.9802C137.048 27.9614 137.165 27.8541 139.074 27.9129C141.63 27.9921 142.387 28.7434 142.329 31.3781C142.216 36.2309 141.676 41.0504 141.371 45.8904C141.346 46.3402 141.239 46.6545 140.755 46.7772C138.783 47.2832 136.828 46.353 135.846 44.3418V44.3444Z" fill="white"/>
<path fill-rule="evenodd" clip-rule="evenodd" d="M216.038 47.0864C212.949 46.9817 210.09 46.1997 208.839 42.9032C207.229 38.6458 207.962 34.4907 210.55 30.8977C212.925 27.6037 216.415 27.1054 220.07 27.7852C221.952 28.1353 223.413 29.2443 223.838 31.3296C224.315 33.6678 223.777 35.7173 221.864 37.1841C219.97 38.6382 217.754 39.0598 215.469 39.2489C214.909 39.2975 214.103 39.07 213.89 39.6654C213.646 40.3452 214.074 41.0863 214.528 41.6715C215.549 42.9901 217.673 43.1 218.817 41.9066C219.936 40.7413 220.776 40.6467 221.769 41.5744C222.719 42.4637 222.775 43.9995 221.886 45.106C221.395 45.7116 220.759 46.0949 220.056 46.3786C218.763 46.8973 217.421 47.0941 216.038 47.0864ZM214.543 36.5197C215.674 36.5044 217.116 35.9473 217.719 35.3186C218.421 34.5852 218.494 33.3663 217.881 32.6712C217.267 31.9838 216.258 31.9761 215.452 32.6737C214.523 33.4813 214.249 34.6133 213.998 35.7812C213.856 36.4303 214.03 36.6066 214.543 36.5197Z" fill="white"/>
<path fill-rule="evenodd" clip-rule="evenodd" d="M199.36 30.1159C200.736 28.23 202.402 27.1644 204.662 27.7189C206.74 28.23 207.744 30.5273 207.069 33.047C206.461 35.3316 204.499 36.6067 202.522 36.0318C201.972 35.8733 201.867 35.5028 201.96 35.0096C202.053 34.5215 202.089 34.036 201.987 33.5504C201.891 33.0828 201.855 32.5308 201.268 32.4133C200.701 32.2957 200.291 32.61 199.968 33.0521C199.382 33.8571 199.113 34.8 199.027 35.7813C198.764 38.7891 198.517 41.7968 198.311 44.8072C198.184 46.6726 198.04 46.8617 196.315 46.7927C193.717 46.6905 192.828 45.8268 192.962 43.1027C193.194 38.3777 193.573 33.6603 193.891 28.9404C193.92 28.4702 194.033 28.0767 194.563 27.931C196.554 27.3918 198.39 28.184 199.365 30.1159H199.36Z" fill="white"/>
<path fill-rule="evenodd" clip-rule="evenodd" d="M82.4966 33.2616C82.2376 36.7268 81.8906 41.2346 81.5827 45.745C81.529 46.5423 81.1771 46.831 80.4684 46.7953C80.0017 46.7723 79.53 46.7953 79.0657 46.7442C77.0033 46.5193 76.148 45.6453 76.2458 43.4962C76.4315 39.5097 76.7516 35.5283 77.0155 31.5469C77.0497 31.018 77.1084 30.4915 77.1304 29.9626C77.1841 28.5656 77.8586 27.8833 79.1537 27.9157C82.0666 27.9872 82.6188 28.6899 82.4966 33.2591V33.2616Z" fill="white"/>
<path fill-rule="evenodd" clip-rule="evenodd" d="M183.793 42.1292C184.091 37.9025 184.416 33.3538 184.729 28.8077C184.763 28.3043 184.887 27.9133 185.459 27.9261C186.354 27.9491 187.263 27.8954 188.14 28.0462C189.459 28.2762 190.131 29.1987 190.073 30.8163C189.956 33.8649 189.738 36.9136 189.547 39.9597C189.435 41.6641 189.271 43.3661 189.156 45.0706C189.044 46.7393 188.966 46.8338 187.333 46.7929C186.947 46.7827 186.554 46.7495 186.175 46.6779C184.411 46.3508 183.805 45.5816 183.79 43.6753C183.788 43.269 183.79 42.8601 183.79 42.1292H183.793Z" fill="white"/>
<path fill-rule="evenodd" clip-rule="evenodd" d="M80.5506 20.9215C82.42 20.9266 83.3413 21.5808 83.4562 22.8304C83.6028 24.3918 82.7768 25.6184 81.2837 25.9659C80.7217 26.0963 80.123 26.1653 79.5487 26.132C78.1583 26.0554 77.4887 25.4727 77.2908 24.2947C77.088 23.0885 77.6525 21.9283 78.735 21.3713C79.3752 21.0442 80.0668 20.9343 80.5506 20.9189V20.9215Z" fill="white"/>
<path fill-rule="evenodd" clip-rule="evenodd" d="M187.706 26.1526C185.934 26.168 185.003 25.5521 184.793 24.374C184.549 22.9916 185.362 21.6244 186.746 21.1746C187.376 20.9702 188.036 20.8705 188.705 20.9293C190.042 21.0469 190.831 21.6781 191.012 22.7692C191.203 23.9217 190.58 25.1407 189.529 25.6978C188.886 26.0376 188.187 26.0862 187.708 26.1552L187.706 26.1526Z" fill="white"/>
</svg>
