<svg width="65" height="65" viewBox="0 0 65 65" fill="none" xmlns="http://www.w3.org/2000/svg">
<rect x="1.61737" y="1.12128" width="61.9524" height="61.9524" rx="30.9762" fill="#FFD9E0"/>
<path d="M20.2299 25.5182C20.2946 24.1043 20.516 23.1924 20.8154 22.4183L20.8194 22.4076C21.1161 21.6199 21.5809 20.9064 22.1814 20.3166L22.1899 20.3083L22.1981 20.2999C22.7884 19.6986 23.5022 19.2342 24.2892 18.9383L24.3028 18.9331C25.0751 18.6328 25.9852 18.4122 27.4004 18.3475M20.2299 25.5182C20.1619 27.029 20.1445 27.4973 20.1445 31.4143C20.1445 35.3321 20.1609 35.7993 20.2299 37.3104M20.2299 25.5182V25.8993M27.4004 18.3475C28.9114 18.2786 29.3796 18.2622 33.2966 18.2622C37.2135 18.2622 37.6815 18.2795 39.1922 18.3475M27.4004 18.3475H27.7824M20.2299 37.3104C20.2945 38.7256 20.5151 39.6357 20.8155 40.4079L20.8207 40.4216M20.2299 37.3104L20.253 37.4324M20.2299 37.3104V36.9284M20.2299 25.8993C20.2352 25.7782 20.2409 25.652 20.247 25.5178C20.3179 23.9708 20.5809 23.0669 20.8316 22.4257C21.156 21.5885 21.567 20.9567 22.1948 20.3262C22.7916 19.714 23.5171 19.2422 24.3187 18.9451C24.957 18.6975 25.8585 18.4353 27.3997 18.3647C27.5344 18.3586 27.661 18.3528 27.7824 18.3475M20.2299 25.8993C20.1739 27.1795 20.1619 27.8858 20.1619 31.4143C20.1619 34.9415 20.1739 35.6488 20.2299 36.9284M20.2299 25.8993L20.2299 36.9284M20.8207 40.4216C21.1166 41.2086 21.5809 41.9223 22.1822 42.5127L22.1906 42.521L22.1989 42.5293C22.7887 43.1299 23.5023 43.5947 24.29 43.8913L24.3017 43.8958C25.0747 44.1956 25.9853 44.4162 27.4004 44.481M20.8207 40.4216L20.8029 40.3281M20.8029 40.3281L20.253 37.4324M20.8029 40.3281C20.5694 39.7112 20.3289 38.8502 20.253 37.4324M20.8029 40.3281C20.8111 40.3498 20.8193 40.3711 20.8275 40.3922C21.1236 41.1906 21.5929 41.9136 22.2016 42.5091C22.7969 43.1177 23.5196 43.5868 24.3177 43.883C24.9583 44.1325 25.8609 44.3933 27.4001 44.4638C28.9535 44.5345 29.4335 44.5489 33.2966 44.5489C37.1596 44.5489 37.64 44.5345 39.1934 44.4638C40.7346 44.3931 41.6361 44.131 42.2744 43.8835C43.0731 43.5874 43.7961 43.118 44.3915 42.5091C45 41.9138 45.4692 41.1911 45.7654 40.393C46.0148 39.7524 46.2756 38.85 46.3462 37.3107C46.4169 35.7573 46.4313 35.2764 46.4313 31.4143C46.4313 27.5521 46.4169 27.0708 46.3462 25.5174C46.2751 23.9682 46.0105 23.0653 45.7619 22.4265C45.4366 21.5871 45.0244 20.9523 44.3906 20.3185C43.758 19.6872 43.1249 19.2746 42.285 18.9492C41.6437 18.6985 40.7403 18.4356 39.1934 18.3647C39.0588 18.3586 38.9323 18.3529 38.811 18.3475M20.253 37.4324C20.2509 37.3924 20.2489 37.352 20.247 37.3111C20.2409 37.1765 20.2352 37.0499 20.2299 36.9284M38.811 18.3475H39.1922M38.811 18.3475L27.7824 18.3475M38.811 18.3475C37.5313 18.2916 36.8243 18.2795 33.2966 18.2795C29.7692 18.2795 29.062 18.2916 27.7824 18.3475M39.1922 18.3475C40.6064 18.4122 41.5184 18.6336 42.2925 18.933L42.3031 18.9371C43.0909 19.2338 43.8044 19.6986 44.3942 20.2991L44.4025 20.3075L44.4108 20.3156C45.0114 20.9055 45.4761 21.6192 45.7726 22.4072L45.7777 22.4205C46.078 23.1928 46.2986 24.1029 46.3633 25.518M46.3633 37.3104C46.2986 38.7254 46.078 39.6361 45.7782 40.409L45.7737 40.4208C45.477 41.2086 45.0122 41.9221 44.4117 42.5118L44.4033 42.5201L44.395 42.5286C43.8047 43.1299 43.0909 43.5942 42.304 43.8901L42.2903 43.8954C41.518 44.1957 40.6079 44.4162 39.1927 44.481M30.9574 37.0615C31.6991 37.3686 32.4939 37.5268 33.2966 37.5268C34.9177 37.5268 36.4725 36.8828 37.6188 35.7365C38.7651 34.5901 39.4091 33.0353 39.4091 31.4143C39.4091 29.7931 38.7651 28.2383 37.6188 27.092C36.4725 25.9457 34.9177 25.3017 33.2966 25.3017C32.4939 25.3017 31.6989 25.4598 30.9574 25.767C30.2158 26.0741 29.5419 26.5244 28.9743 27.092C28.4067 27.6596 27.9565 28.3334 27.6493 29.0751C27.3421 29.8166 27.184 30.6116 27.184 31.4143C27.184 32.217 27.3421 33.0118 27.6493 33.7534C27.9565 34.4951 28.4067 35.1689 28.9743 35.7365C29.5419 36.304 30.2158 36.7544 30.9574 37.0615ZM28.9607 27.0784C30.1107 25.9284 31.6703 25.2824 33.2966 25.2824C34.9228 25.2824 36.4824 25.9284 37.6324 27.0784C38.7824 28.2283 39.4283 29.788 39.4283 31.4143C39.4283 33.0405 38.7824 34.6001 37.6324 35.7501C36.4824 36.9 34.9228 37.546 33.2966 37.546C31.6703 37.546 30.1107 36.9 28.9607 35.7501C27.8108 34.6001 27.1647 33.0405 27.1647 31.4143C27.1647 29.788 27.8108 28.2283 28.9607 27.0784ZM42.8812 23.8548C42.8812 24.3202 42.6963 24.7666 42.3672 25.0958C42.038 25.4249 41.5916 25.6098 41.1262 25.6098C40.6606 25.6098 40.2143 25.4249 39.8852 25.0958C39.556 24.7666 39.3711 24.3202 39.3711 23.8548C39.3711 23.3893 39.556 22.9429 39.8852 22.6138C40.2143 22.2846 40.6606 22.0997 41.1262 22.0997C41.5916 22.0997 42.038 22.2846 42.3672 22.6138C42.6963 22.9429 42.8812 23.3893 42.8812 23.8548Z" stroke="#FA1F7D" stroke-width="2.21362" stroke-linejoin="round"/>
<rect x="1.61737" y="1.12128" width="61.9524" height="61.9524" rx="30.9762" stroke="white" stroke-width="2.24256"/>
</svg>
