<svg width="62" height="62" viewBox="0 0 62 62" fill="none" xmlns="http://www.w3.org/2000/svg">
<path d="M0.574219 31.2769C0.574219 14.4322 14.2295 0.776855 31.0742 0.776855C47.9189 0.776855 61.5742 14.4322 61.5742 31.2769C61.5742 48.1215 47.9189 61.7769 31.0742 61.7769C14.2295 61.7769 0.574219 48.1215 0.574219 31.2769Z" fill="#D9D9D9"/>
<path d="M28.2148 19.8394C26.5182 19.8394 24.8598 20.3425 23.4491 21.285C22.0384 22.2276 20.9389 23.5673 20.2897 25.1348C19.6404 26.7022 19.4706 28.427 19.8015 30.091C20.1325 31.755 20.9495 33.2835 22.1492 34.4831C23.3489 35.6828 24.8773 36.4998 26.5413 36.8308C28.2053 37.1618 29.9301 36.9919 31.4975 36.3426C33.065 35.6934 34.4047 34.5939 35.3473 33.1832C36.2898 31.7726 36.7929 30.1141 36.7929 28.4175C36.7929 27.291 36.5711 26.1755 36.14 25.1348C35.7089 24.094 35.077 23.1484 34.2805 22.3518C33.4839 21.5553 32.5383 20.9234 31.4975 20.4923C30.4568 20.0612 29.3413 19.8394 28.2148 19.8394V19.8394Z" stroke="#242424" stroke-width="2.54167" stroke-miterlimit="10"/>
<path d="M34.3711 34.5684L40.6093 40.8066" stroke="#242424" stroke-width="2.54167" stroke-miterlimit="10" stroke-linecap="round"/>
</svg>
