<svg width="78" height="78" viewBox="0 0 78 78" fill="none" xmlns="http://www.w3.org/2000/svg">
<g clip-path="url(#clip0_185192_7654)">
<path d="M42.9126 17.2164C42.5722 17.1548 40.9287 16.8793 39 16.8793C37.0712 16.8793 35.4277 17.1548 35.0874 17.2164C34.8929 17.2488 34.8151 17.0608 34.9642 16.9474C35.1003 16.8501 39 13.8808 39 13.8808L43.0325 16.9474C43.1849 17.0608 43.1103 17.2521 42.9126 17.2164ZM36.1766 36.4877C36.1766 36.4877 35.9691 36.5622 35.9172 36.7438C36.7341 37.3694 37.2949 38.7989 39 38.7989C40.7051 38.7989 41.2691 37.3726 42.0827 36.7405C42.0309 36.559 41.8234 36.4877 41.8234 36.4877C41.8234 36.4877 40.7537 36.7373 39 36.7373C37.243 36.7373 36.1766 36.4877 36.1766 36.4877ZM39 34.0824C38.5267 34.0824 38.423 33.9041 38.0988 33.9041C37.7941 33.9041 37.1944 34.1505 37.0648 34.3774C37.0731 34.4927 37.1212 34.6016 37.2009 34.6854C37.8881 34.7858 38.2026 35.1716 39 35.1716C39.8007 35.1716 40.1118 34.7858 40.8023 34.6854C40.8799 34.6005 40.9267 34.4921 40.9352 34.3774C40.8055 34.1505 40.2091 33.9074 39.9011 33.9041C39.577 33.9041 39.4733 34.0824 39 34.0824ZM77.8569 41.4408C77.8078 42.3652 77.7256 43.2875 77.6106 44.2059C73.202 44.9353 71.6298 41.0097 67.1175 41.2074C67.3866 42.1637 67.6038 43.1394 67.7756 44.1346C71.4969 44.1346 72.9945 47.6128 77.1373 47.1006C76.9201 48.1639 76.6575 49.2142 76.3528 50.245C73.0788 50.5691 71.9281 47.3146 68.1386 47.4054C68.1711 47.9435 68.1873 48.488 68.1873 49.0391L68.1711 49.9468L75.5295 52.754C75.1444 53.7962 74.7151 54.8214 74.2425 55.827C72.0318 55.7071 71.27 52.8707 67.9052 53.0943C67.8045 53.8174 67.6769 54.5364 67.5227 55.25C70.4434 55.0458 71.0723 57.7363 73.1631 57.9535C72.6304 58.9247 72.0572 59.8732 71.4451 60.7964C70.2068 60.1318 69.1306 58.1285 66.7772 58.0054C67.0208 57.2583 67.2328 56.5012 67.4125 55.7362C65.3249 55.7362 62.9391 54.9258 60.9423 53.1041C61.5906 49.4087 55.8595 45.6517 55.8595 42.9482C55.8595 40.0113 57.3441 38.3873 57.3441 34.4293C57.3441 31.4892 55.9178 28.3027 53.7654 26.1243C53.3654 25.716 52.9182 25.3569 52.4331 25.0546C54.4105 27.4988 55.9276 30.4 55.9276 33.7583C55.9276 37.4861 54.1933 39.4537 54.1933 42.8963C54.1933 46.3356 59.2275 49.3147 59.2275 52.861C59.2275 54.2548 58.7802 55.6163 57.3085 58.2971C59.5679 60.5532 62.5112 61.785 64.4076 61.785C65.0235 61.785 65.3573 61.597 65.5778 61.114C65.7681 60.6958 65.9486 60.2732 66.1191 59.8466C68.1613 59.9244 69.1014 61.7818 70.2327 62.5241C69.6103 63.3605 68.9588 64.1644 68.2748 64.9424C67.5163 64.1028 66.4951 62.6895 65.0008 62.2972C64.7349 62.8164 64.4538 63.3277 64.158 63.8305C65.4416 64.1806 66.3201 65.4772 67.0008 66.3298C66.2667 67.0907 65.5021 67.8217 64.709 68.5211C64.2131 67.7463 63.4383 66.7674 62.5696 66.239C62.2504 66.6702 61.9186 67.0917 61.5744 67.5032C62.3103 68.0057 62.9618 68.9036 63.3865 69.6362C62.4691 70.372 61.5193 71.0722 60.5339 71.727C60.0476 67.7723 54.6536 65.0655 56.1091 60.4787C55.6326 61.2891 55.0621 62.2972 55.0621 63.5161C55.0621 66.8354 58.5954 69.4676 58.8806 72.7676C58.1481 73.2052 57.396 73.6169 56.6342 74.0091C56.5046 70.3817 52.7638 66.414 52.7638 63.4415C52.7638 60.1189 57.114 56.78 57.114 52.861C57.114 48.9386 52.0928 46.2189 52.0928 42.7764C52.0928 39.3338 54.229 37.3532 54.229 32.9381C54.229 29.7063 52.6925 26.4355 50.3196 24.3479C49.9173 23.9843 49.4708 23.6728 48.9906 23.4208C51.2273 26.1049 52.5239 28.5425 52.5239 32.2347C52.5239 36.384 50.0765 38.6855 50.0765 42.7504C50.0765 46.8154 55.0037 49.0715 55.0037 52.8642C55.0037 56.6504 50.4169 59.8401 50.4169 63.7332C50.4169 67.2731 54.4591 70.8064 54.5207 75.0043C53.6343 75.3906 52.7336 75.7431 51.8205 76.061C52.3359 71.8178 47.7847 67.4416 47.7847 63.9796C47.7847 60.1967 52.5401 56.9421 52.5401 52.861C52.5401 48.7765 47.7069 46.8802 47.7069 42.6888C47.7069 38.5007 50.6729 36.183 50.6729 31.554C50.6633 29.8409 50.2636 28.1526 49.5043 26.617C48.7449 25.0814 47.6458 23.739 46.2903 22.6915L46.125 22.5683C45.8786 22.3868 45.6777 22.604 45.8527 22.8211C47.6939 25.1227 48.6794 27.4469 48.6794 30.8927C48.6794 35.123 45.2692 38.5623 45.2692 42.6662C45.2692 47.5058 49.8463 48.89 49.8463 52.861C49.8463 56.8319 44.9386 60.0087 44.9386 64.2227C44.9386 68.1321 49.5838 72.4726 48.7863 76.9849C47.8503 77.2285 46.9052 77.4361 45.9532 77.6073C46.8252 71.9896 42.2675 67.9538 42.2675 64.2778C42.2675 60.2972 47.3503 56.7509 47.3503 52.861C47.3503 49.1947 43.7035 47.9953 43.2238 44.2416C43.1589 43.7294 42.7473 43.3501 42.18 43.4441C41.4377 43.5803 40.4879 44.0665 38.9967 44.0665C37.5056 44.0665 36.5558 43.5803 35.8135 43.4441C35.2495 43.3501 34.8378 43.7294 34.7729 44.2416C34.2932 47.9953 30.6432 49.1915 30.6432 52.8642C30.6432 56.7509 35.726 60.2972 35.726 64.2746C35.726 67.9538 31.1715 71.9896 32.0403 77.6073C31.0886 77.4347 30.1435 77.2271 29.2071 76.9849C28.4097 72.4726 33.0549 68.1353 33.0549 64.2227C33.0549 60.0087 28.1471 56.8319 28.1471 52.861C28.1471 48.89 32.7243 47.5058 32.7243 42.6662C32.7243 38.5623 29.3141 35.1262 29.3141 30.8895C29.3141 27.4469 30.2996 25.1194 32.144 22.8179C32.3158 22.604 32.1148 22.3868 31.8685 22.5683L31.7064 22.6915C30.3517 23.738 29.2532 25.0794 28.4943 26.6139C27.7355 28.1484 27.3363 29.8356 27.327 31.5475C27.327 36.1765 30.2931 38.4942 30.2931 42.6856C30.2931 46.8737 25.4566 48.7733 25.4566 52.8577C25.4566 56.9356 30.212 60.1902 30.212 63.9764C30.212 67.4384 25.6641 71.8145 26.1795 76.0578C25.2665 75.7395 24.3658 75.387 23.4792 75.001C23.5408 70.7999 27.5799 67.2666 27.5799 63.7268C27.5799 59.8369 22.9963 56.6439 22.9963 52.8577C22.9963 49.0683 27.9202 46.8089 27.9202 42.7439C27.9202 38.6822 25.4761 36.3775 25.4761 32.2282C25.4761 28.5328 26.7727 26.1016 29.0094 23.4176C28.5284 23.667 28.0817 23.9775 27.6804 24.3414C26.4716 25.4263 25.5003 26.7495 24.8275 28.2278C24.1547 29.7061 23.795 31.3076 23.771 32.9317C23.771 37.3467 25.9072 39.3273 25.9072 42.7699C25.9072 46.2157 20.886 48.9289 20.886 52.8545C20.886 56.7768 25.2362 60.1156 25.2362 63.435C25.2362 66.4108 21.4922 70.3785 21.3657 74.0026C20.6033 73.6138 19.8541 73.1998 19.1193 72.7611C19.4013 69.4644 22.9379 66.829 22.9379 63.5096C22.9379 62.294 22.3674 61.2826 21.8909 60.4754C23.3431 65.0591 17.9491 67.769 17.4629 71.7205C16.4811 71.0668 15.5293 70.3691 14.6103 69.6297C15.0349 68.9003 15.6865 67.9992 16.4255 67.5C16.0795 67.0881 15.7466 66.6654 15.4271 66.2325C14.5584 66.7609 13.7836 67.7431 13.2877 68.5146C12.4949 67.816 11.7304 67.0861 10.9959 66.3265C11.6766 65.4707 12.5583 64.1741 13.842 63.824C13.5448 63.3215 13.2626 62.8101 12.9959 62.2907C11.5048 62.6862 10.4805 64.0995 9.72194 64.9391C9.03878 64.1591 8.38671 63.3524 7.76726 62.5209C8.90182 61.7753 9.83539 59.9179 11.8808 59.8401C12.0526 60.2647 12.2309 60.6894 12.4222 61.1043C12.6426 61.5906 12.9733 61.7786 13.5892 61.7786C15.4887 61.7786 18.4288 60.5468 20.6882 58.2906C19.2198 55.6131 18.7757 54.2516 18.7757 52.8545C18.7757 49.3082 23.8066 46.3324 23.8066 42.8898C23.8066 39.4505 22.0724 37.4828 22.0724 33.755C22.0724 30.3935 23.5895 27.4955 25.5668 25.0481C25.0806 25.3502 24.6323 25.7093 24.2313 26.1178C22.0821 28.3027 20.6526 31.4891 20.6526 34.426C20.6526 38.384 22.1405 40.0113 22.1405 42.9482C22.1405 45.6517 16.4093 49.4087 17.0577 53.1008C15.0576 54.9226 12.6718 55.7362 10.5842 55.7362C10.7653 56.5006 10.9761 57.2575 11.2163 58.0054C8.86616 58.1285 7.79319 60.1318 6.54842 60.7931C5.93589 59.8713 5.36269 58.9239 4.83038 57.9535C6.92445 57.7331 7.55331 55.0458 10.4772 55.25C10.3232 54.5364 10.1956 53.8174 10.0947 53.0943C6.72995 52.8674 5.96493 55.7071 3.75417 55.827C3.28275 54.8214 2.85447 53.7961 2.4705 52.754L9.82567 49.9435L9.80946 49.0359C9.80946 48.4848 9.82567 47.9402 9.85484 47.3989C6.06867 47.3114 4.91466 50.5627 1.64065 50.2417C1.33707 49.2048 1.07644 48.1558 0.85943 47.0974C4.9957 47.6063 6.4998 44.1281 10.2211 44.1314C10.3875 43.1437 10.6061 42.1655 10.8759 41.201C6.36365 41.0065 4.78824 44.9288 0.386158 44.1994C0.270501 43.2821 0.188326 42.3609 0.139797 41.4376C5.26151 42.0081 7.17729 37.8005 11.8419 38.3159C12.2787 37.2066 12.7877 36.127 13.3655 35.0841C7.5209 34.0565 5.53704 38.9448 0.0976562 38.196C0.687626 17.2164 17.8778 0.392578 39 0.392578C60.1222 0.392578 77.3123 17.2164 77.8991 38.1992C72.4564 38.9513 70.4758 34.063 64.6312 35.0873C65.205 36.1246 65.7172 37.2073 66.1548 38.3192C70.8162 37.8038 72.7352 42.0146 77.8569 41.4408ZM22.2734 25.1194C19.4078 23.9492 15.9393 24.2183 12.9765 26.1243C12.5162 23.3657 11.0218 20.9151 8.89209 19.4402C8.59711 19.2359 8.2924 19.4272 8.31833 19.7708C8.76891 25.5927 5.362 30.6496 1.17711 35.097C5.49166 36.3937 9.16438 30.8376 14.7594 32.7761C16.7713 29.783 19.3187 27.1873 22.2734 25.1194ZM39 21.5958C35.3889 21.5958 32.3612 23.638 31.5703 26.2799C31.5054 26.4809 31.5897 26.6138 31.8231 26.5068C32.4714 26.2151 33.2137 26.0757 34.0177 26.0757C35.4893 26.0757 36.7892 26.617 37.5575 27.5571C37.8946 28.6787 37.9238 30.3027 37.5413 31.2266C36.9351 31.0904 36.7147 30.6236 36.1215 30.6236C35.5315 30.6236 35.0712 31.0386 34.0663 31.0386C33.0614 31.0386 32.9447 30.5653 32.2834 30.5653C31.5054 30.5653 31.3628 31.366 31.3628 32.2671C31.3628 36.2932 35.0647 41.8298 39 41.8298C42.932 41.8298 46.6307 36.2932 46.6307 32.2671C46.6307 31.3627 46.4459 30.5912 45.6355 30.4843C45.1574 30.8775 44.5484 31.0755 43.9304 31.0386C42.9255 31.0386 42.65 30.6236 42.0568 30.6236C41.3437 30.6236 41.415 32.131 40.5657 32.212C39.9984 30.8538 39.9725 29.1098 40.4425 27.5571C41.2107 26.617 42.5074 26.0757 43.9823 26.0757C44.7862 26.0757 45.5285 26.2183 46.1736 26.5068C46.407 26.6138 46.4881 26.4809 46.4297 26.2799C45.6388 23.6413 42.6111 21.5958 39 21.5958ZM44.7506 27.3723C43.8851 27.3723 42.8704 27.6381 42.2318 28.348C42.1625 28.5691 42.1717 28.8073 42.2578 29.0223C43.83 28.4842 45.2141 28.4615 45.8851 29.2103C46.2417 28.8862 46.3552 28.5944 46.3552 28.2573C46.3552 27.7354 45.8235 27.3723 44.7506 27.3723ZM32.1148 29.2103C32.8734 28.4518 34.4715 28.4842 36.1279 29.0969C36.2025 28.2735 34.7243 27.3691 33.2494 27.3691C32.1764 27.3691 31.6448 27.7321 31.6448 28.2573C31.6448 28.5944 31.7583 28.8894 32.1148 29.2103ZM57.0103 15.5859C54.1577 15.7901 51.6843 16.7691 49.6778 18.3996C50.4936 16.0782 51.6037 13.8711 52.981 11.8321C49.3504 12.2179 46.313 13.547 44.099 15.8161L42.3615 11.2681L46.2125 7.87093L41.0584 7.50463L39 2.71031L36.9416 7.50787L31.7874 7.87093L35.6352 11.2714L33.9042 15.8161C31.687 13.547 28.6528 12.2179 25.0222 11.8321C26.3958 13.8723 27.5037 16.0792 28.3189 18.3996C26.3156 16.7691 23.8391 15.7901 20.9865 15.5859C22.698 17.7869 24.2151 20.1306 25.3367 22.6526C25.4663 22.9378 25.7386 23.0318 26.0304 22.8827C30.0593 20.8811 34.498 19.8425 38.9967 19.8486C43.6581 19.8486 48.057 20.9443 51.9663 22.8827C52.2613 23.0318 52.5336 22.9378 52.66 22.6558C53.7849 20.1306 55.3019 17.7869 57.0135 15.5892L57.0103 15.5859ZM63.2406 32.7793C68.8356 30.8408 72.5115 36.3937 76.8229 35.1003C72.638 30.6528 69.2343 25.5959 69.6849 19.7708C69.7108 19.4304 69.4029 19.2359 69.1111 19.4402C66.9814 20.9183 65.4838 23.369 65.0267 26.1243C62.0639 24.2215 58.5954 23.9525 55.7298 25.1227C58.683 27.1912 61.2292 29.7869 63.2406 32.7793Z" fill="white"/>
</g>
<defs>
<clipPath id="clip0_185192_7654">
<rect width="77.7982" height="77.7982" fill="white" transform="translate(0.101562)"/>
</clipPath>
</defs>
</svg>
