<svg width="79" height="78" viewBox="0 0 79 78" fill="none" xmlns="http://www.w3.org/2000/svg">
<g clip-path="url(#clip0_185192_7652)">
<path d="M44.7478 7.21302V6.9699C44.7478 5.83534 45.1141 4.82072 45.8434 3.92929C46.5728 3.03785 47.5031 2.59375 48.6377 2.59375C49.7722 2.59375 50.7868 2.95681 51.6783 3.68617C52.5697 4.41552 53.056 5.388 53.137 6.6036C53.218 7.81919 52.8517 8.83381 52.0413 9.64421C51.2309 10.4546 50.2585 10.8598 49.1239 10.8598L48.3946 11.1029L48.6377 11.466L48.3946 12.8048L47.9083 16.6947C48.0704 16.8567 48.1514 17.0188 48.1514 17.1809L47.6652 19.6121C47.5031 19.9363 47.341 20.1794 47.179 20.3415L46.9358 21.3139C46.5115 23.0328 46.0249 24.7358 45.4771 26.4194V26.9057C45.315 27.7161 45.1951 28.3644 45.1141 28.8506C45.033 29.3369 44.7478 30.1473 44.2615 31.2818C43.9374 31.9301 43.9374 32.9837 44.2615 34.4424L44.5047 34.6855C44.5047 35.1717 44.7089 35.739 45.1141 36.3873C45.5193 37.0356 45.7202 37.6029 45.7202 38.0892C45.8823 41.3307 45.6392 44.0861 44.9909 46.3552L45.4771 47.8139C47.4221 48.7864 47.9894 49.8399 47.179 50.9745L48.3946 51.4607C50.3395 52.4332 51.7172 53.2825 52.5276 54.0119C53.338 54.7412 54.1484 55.5127 54.9588 56.3231C55.6071 56.4852 56.0933 56.7283 56.4175 57.0525L57.1469 57.2956C60.5505 59.5647 63.9542 62.32 67.3579 65.5616L68.3303 66.291V66.5341L68.0872 67.0204L68.8166 67.5066H69.0597C69.5459 67.8308 69.8701 67.9928 70.0322 67.9928H70.2753C70.4374 67.9928 70.5994 67.9118 70.7615 67.7497L71.2478 67.5066C71.5719 67.1824 71.8961 66.9393 72.2202 66.7772H73.1927C73.3548 66.7772 73.3548 66.8583 73.1927 67.0204L72.2202 67.5066L71.0046 68.9653H72.7065L74.4083 69.2084C74.8946 69.0463 75.2998 68.8843 75.6239 68.7222L76.8395 67.9928C77.3258 67.8307 77.812 67.9928 78.2982 68.4791H78.5413C78.7034 68.6412 78.6224 68.8843 78.2982 69.2084L75.3808 71.8827C74.5704 72.5311 73.841 72.9363 73.1927 73.0983L70.0322 75.2864C69.8701 75.4485 69.708 75.4485 69.5459 75.2864L68.8166 74.3139L68.3303 73.3415L67.7209 72.4889L66.9916 71.5164L66.3854 70.7871L65.8991 70.1809L64.9267 69.4515C64.6025 69.4515 64.2784 69.3705 63.9542 69.2084L60.7936 66.7772C60.3074 66.7772 59.7401 66.5341 59.0918 66.0479C56.6606 63.9408 55.0398 62.6442 54.2294 62.158L52.7707 61.1855L49.8533 60.6993C48.8808 60.5372 47.5842 60.0509 45.9634 59.2405L44.0184 58.2681C42.7218 57.6197 41.8303 57.2956 41.3441 57.2956L40.3716 56.8093C39.7233 56.6473 39.2371 56.4852 38.9129 56.3231L38.4267 55.8369C38.1025 55.8369 37.7783 55.9179 37.4542 56.08L32.5918 58.5112L26.5138 61.1855C24.893 62.4821 23.3533 63.5356 21.8946 64.346L19.2202 65.5616L15.0872 68.4791C14.7631 68.8032 14.4389 68.8032 14.1147 68.4791L13.6285 68.9653C13.1423 69.1274 12.8181 69.2084 12.656 69.2084L11.6835 69.6947V70.1809H11.1973L10.7111 70.9103C10.3869 71.5586 10.0628 71.9216 9.73859 72.0027C9.41443 72.0837 9.21345 72.2069 9.13241 72.369C9.07078 72.5019 8.98875 72.6244 8.88929 72.732L8.40306 73.2183L7.6737 73.7045L6.57804 73.5846L5.11933 73.8277L4.14685 74.0708C3.33645 74.2329 2.68813 74.1097 2.20189 73.7045C1.71566 73.2993 1.31046 72.6931 0.986298 71.8827C0.662139 71.3965 0.824219 70.9913 1.47254 70.6671L1.71566 70.424C1.87774 70.2619 2.12085 70.1809 2.44501 70.1809H3.90373L5.84868 69.4515L6.82116 69.2084C6.82116 68.8843 6.9022 68.6412 7.06428 68.4791C7.22636 68.317 7.46948 68.2359 7.79364 68.2359V67.9928C7.63742 67.6922 7.55414 67.3591 7.55052 67.0204C7.38844 66.6962 7.3463 66.4531 7.43058 66.291C7.51162 66.1289 7.59266 66.0479 7.6737 66.0479H7.79364L8.03676 66.7772C8.19884 67.5876 8.44196 67.8308 8.76612 67.5066L9.00923 67.0204C9.17131 66.6962 9.41443 66.5341 9.73859 66.5341L10.2248 67.0204L10.7111 66.5341L10.4679 66.291C10.4679 66.1289 10.549 66.0479 10.7111 66.0479L11.6835 65.0754C12.4939 64.1029 13.4664 63.2115 14.601 62.4011C16.8701 60.6182 19.3013 59.2405 21.8946 58.2681C22.705 57.4577 23.5964 57.0525 24.5689 57.0525C25.2172 55.9179 26.1897 54.7023 27.4863 53.4057C28.6209 52.5953 29.4313 52.028 29.9175 51.7038C30.2417 51.0555 30.6469 50.7314 31.1331 50.7314H31.3762L31.8624 50.2451C32.1866 50.083 32.4297 49.921 32.5918 49.7589V48.5433C32.5918 47.7329 32.6728 47.0846 32.8349 46.5983C32.997 46.1121 33.4022 45.869 34.0505 45.869L35.023 44.8965C34.6988 44.2482 34.5368 43.5188 34.5368 42.7084H34.2936C33.9695 42.2222 33.8074 41.736 33.8074 41.2497C33.3212 40.4393 32.997 39.791 32.8349 39.3048H32.1056C31.9435 39.791 31.5383 40.1152 30.89 40.2772L30.6468 40.7635C29.9985 41.898 29.4313 42.7473 28.945 43.3146C28.4588 43.8819 27.5673 44.5723 26.2707 45.3827C25.4603 46.1931 24.893 47.0846 24.5689 48.057C24.4068 48.5433 24.4068 49.0295 24.5689 49.5158L24.3257 50.002H24.5689C24.5689 50.3262 24.6499 50.4882 24.812 50.4882H25.0551C25.3793 50.6503 25.5413 50.8513 25.5413 51.0944C25.5413 51.3375 25.2982 51.4186 24.812 51.3375C24.4062 51.2929 24.0243 51.123 23.7196 50.8513C23.4765 50.6082 23.2722 50.4882 23.1102 50.4882L22.3808 51.2176C22.0566 51.7038 21.7325 51.9048 21.4083 51.8238C21.0842 51.7427 21.0031 51.6228 21.1652 51.4607L21.4083 51.2176C21.5704 50.8934 21.5704 50.7314 21.4083 50.7314L19.4634 51.2176C19.3013 51.3797 19.1003 51.3797 18.8572 51.2176C18.6141 51.0555 18.653 50.8934 18.9771 50.7314L20.1927 50.2451C20.1927 50.083 20.1117 50.002 19.9496 50.002C19.3013 50.3262 18.653 50.4072 18.0046 50.2451L16.7891 50.002L16.5459 49.7589C16.5459 49.5968 16.627 49.5158 16.7891 49.5158C17.4374 49.6778 18.2478 49.5968 19.2202 49.2726L20.9221 48.5433L22.867 46.3552L23.1102 45.869C23.7585 44.5723 24.4489 43.3956 25.1783 42.3421C25.8203 41.3847 26.5977 40.5254 27.4863 39.791L27.7294 38.8185C28.0536 38.1702 28.3777 37.6029 28.7019 37.1167C29.0261 36.6304 29.4313 35.9821 29.9175 35.1717L30.6468 34.1993C31.2952 33.2268 32.0245 32.7405 32.8349 32.7405L33.5643 32.0112C33.7264 31.8491 33.8074 31.606 33.8074 31.2818L34.2936 30.7956L34.0505 30.5525C33.078 29.7421 32.5918 29.0127 32.5918 28.3644C32.4297 27.2298 32.796 26.2574 33.6875 25.447C34.5789 24.6366 35.4703 24.2703 36.3618 24.3513C37.2532 24.4323 37.9404 24.7176 38.4267 25.2038L38.9129 25.6901C39.075 25.6901 39.156 25.7711 39.156 25.9332L40.1285 26.4194V27.1488C40.4527 27.473 40.6147 27.7161 40.6147 27.8782C40.9389 27.3919 41.4251 26.8246 42.0735 26.1763L43.2891 22.2864C43.2891 21.6381 43.4511 20.9898 43.7753 20.3415L44.2615 19.6121V19.1259L44.9909 16.2084H45.4771L46.2065 13.291C46.3694 12.7354 46.3694 12.1447 46.2065 11.5892L45.234 9.15797L44.7478 7.21302Z" fill="white"/>
</g>
<defs>
<clipPath id="clip0_185192_7652">
<rect width="77.7982" height="77.7982" fill="white" transform="translate(0.824219)"/>
</clipPath>
</defs>
</svg>
