<svg width="79" height="78" viewBox="0 0 79 78" fill="none" xmlns="http://www.w3.org/2000/svg">
<g clip-path="url(#clip0_185192_7648)">
<path d="M38.9651 58.2937C38.9651 56.2061 40.641 54.5334 42.7318 54.5334C44.8194 54.5334 46.492 56.2061 46.492 58.2937C46.4937 58.7881 46.3977 59.278 46.2094 59.7352C46.021 60.1923 45.7442 60.6077 45.3947 60.9575C45.0452 61.3073 44.63 61.5845 44.173 61.7732C43.716 61.9619 43.2262 62.0584 42.7318 62.0572C42.2371 62.0593 41.7468 61.9635 41.2893 61.7754C40.8318 61.5873 40.4159 61.3105 40.0658 60.961C39.7157 60.6115 39.4382 60.1961 39.2493 59.7389C39.0604 59.2817 38.9638 58.7884 38.9651 58.2937ZM54.2783 58.2969C54.2783 56.2061 55.9542 54.5302 58.0418 54.5302C60.1294 54.5302 61.8053 56.2061 61.8053 58.2937C61.8053 60.3812 60.1294 62.0572 58.0451 62.0572C57.5504 62.0593 57.0601 61.9635 56.6026 61.7754C56.145 61.5873 55.7292 61.3105 55.3791 60.961C55.029 60.6115 54.7515 60.1961 54.5626 59.7389C54.3736 59.2817 54.277 58.7916 54.2783 58.2969ZM18.7829 58.2969C18.7829 56.2061 20.4588 54.5302 22.5464 54.5302C24.634 54.5302 26.3067 56.2061 26.3067 58.2937C26.3067 60.3812 24.634 62.0572 22.5464 62.0572C22.052 62.0589 21.5621 61.9628 21.1049 61.7745C20.6477 61.5861 20.2323 61.3093 19.8826 60.9598C19.5328 60.6103 19.2556 60.1952 19.0668 59.7382C18.8781 59.2812 18.7816 58.7913 18.7829 58.2969ZM3.46965 58.2969C3.46965 56.2061 5.14555 54.5302 7.23313 54.5302C9.32072 54.5302 10.9966 56.2061 10.9966 58.2937C10.9983 58.7884 10.9022 59.2785 10.7136 59.7359C10.5251 60.1933 10.248 60.6089 9.89814 60.9587C9.54833 61.3085 9.13276 61.5856 8.67538 61.7742C8.218 61.9627 7.72784 62.0589 7.23313 62.0572C6.73897 62.0584 6.24942 61.962 5.79263 61.7735C5.33584 61.585 4.9208 61.3081 4.57138 60.9587C4.22195 60.6092 3.94502 60.1942 3.75651 59.7374C3.56799 59.2806 3.46836 58.7911 3.46965 58.2969ZM34.4301 51.6452H31.1561V64.8157H34.4301V51.6452ZM10.9707 64.8157H14.2447V51.6452H10.9707V52.7019C9.82944 51.9077 8.47119 51.4843 7.08078 51.4896C3.31405 51.4896 0.273438 54.5302 0.273438 58.2969C0.273438 62.0831 3.31405 65.101 7.08078 65.101C8.52328 65.101 9.86206 64.6634 10.9707 63.8886V64.8157ZM61.7794 64.8157H65.0534V51.6452H61.7794V52.7019C60.6381 51.9077 59.2799 51.4843 57.8895 51.4896C54.1227 51.4896 51.0821 54.5302 51.0821 58.2969C51.0791 59.1915 51.2532 60.0779 51.5943 60.905C51.9353 61.7321 52.4367 62.4835 53.0695 63.116C53.7022 63.7484 54.4539 64.2494 55.2811 64.5901C56.1083 64.9308 56.9948 65.1044 57.8895 65.101C59.332 65.101 60.6707 64.6634 61.7794 63.8886V64.8157ZM66.2657 60.5368C66.3695 63.1949 68.6386 65.0751 72.4248 65.0751C75.5205 65.0751 78.0716 63.7331 78.0716 60.7702C78.0716 58.7086 76.9111 57.4962 74.2303 56.9776L72.1427 56.5691C70.8007 56.3098 69.8736 56.0505 69.8736 55.2531C69.8736 54.3778 70.7748 53.9888 71.9093 53.9888C73.5626 53.9888 74.2303 54.8154 74.2822 55.7944H77.5821C77.4006 53.2173 75.3389 51.4896 72.0131 51.4896C68.5867 51.4896 66.5478 53.3697 66.5478 55.8203C66.5478 58.8091 68.9725 59.2986 71.06 59.6875L72.7878 59.9955C74.0261 60.2289 74.5674 60.5887 74.5674 61.3116C74.5674 61.9567 73.9483 62.5985 72.4766 62.5985C70.3372 62.5985 69.6435 61.4899 69.6175 60.5368H66.2657ZM26.284 47.1588V52.7019C25.1427 51.9077 23.7845 51.4843 22.394 51.4896C18.6273 51.4896 15.5867 54.5302 15.5867 58.2969C15.5867 62.0831 18.6273 65.101 22.394 65.101C23.8333 65.101 25.1753 64.6634 26.284 63.8886V64.8157H29.558V47.1588H26.284ZM46.4661 47.1588V52.7019C45.3249 51.9077 43.9666 51.4843 42.5762 51.4896C38.8127 51.4896 35.7688 54.5302 35.7688 58.2969C35.7659 59.1915 35.9399 60.0779 36.281 60.905C36.6221 61.7321 37.1234 62.4835 37.7562 63.116C38.3889 63.7484 39.1406 64.2494 39.9678 64.5901C40.7951 64.9308 41.6816 65.1044 42.5762 65.101C44.0187 65.101 45.3575 64.6634 46.4661 63.8886V64.8157H49.7401V47.1588H46.4661ZM8.77937 43.2689L10.9966 47.1588H26.284L20.2254 36.6917L8.78261 43.2657L8.77937 43.2689ZM34.4301 50.4328V47.1588H46.4661L33.6294 24.9377L22.1574 31.5116L31.1561 47.1588V50.4328H34.4301ZM51.3414 47.1588H66.6515L46.8551 12.8984L35.409 19.4983L51.3414 47.1588Z" fill="white"/>
</g>
<defs>
<clipPath id="clip0_185192_7648">
<rect width="77.7982" height="77.7982" fill="white" transform="translate(0.273438)"/>
</clipPath>
</defs>
</svg>
