<svg width="79" height="78" viewBox="0 0 79 78" fill="none" xmlns="http://www.w3.org/2000/svg">
<g clip-path="url(#clip0_185192_7650)">
<path d="M60.2933 10.7243C53.7513 5.91093 45.7439 3.51268 37.6331 3.93746C29.5223 4.36225 21.8092 7.58384 15.8058 13.0542C9.80242 18.5246 5.87962 25.9058 4.70471 33.9423C3.5298 41.9788 5.17536 50.1741 9.36144 57.1341C33.5275 50.5439 53.1326 34.443 60.2933 10.7243ZM39.4499 74.1395C45.7221 74.1467 51.8818 72.4749 57.2897 69.2975C62.6975 66.1201 67.1562 61.553 70.2028 56.0704C73.2494 50.5878 74.7728 44.3897 74.6149 38.1195C74.457 31.8493 72.6236 25.7357 69.3049 20.4134C70.6484 25.2626 70.4763 30.4068 68.8115 35.1553C67.1468 39.9038 64.0692 44.0294 59.9918 46.9782C49.3432 54.8099 33.8646 54.8617 12.5058 61.5459C15.7995 65.4915 19.9203 68.6647 24.5764 70.841C29.2326 73.0173 34.3102 74.1433 39.4499 74.1395ZM78.349 39.0006C78.349 46.6942 76.0676 54.2149 71.7933 60.6118C67.519 67.0087 61.4438 71.9945 54.3359 74.9387C47.228 77.8829 39.4067 78.6532 31.861 77.1523C24.3154 75.6514 17.3842 71.9466 11.9441 66.5064C6.50394 61.0663 2.79916 54.1352 1.29823 46.5895C-0.202696 39.0438 0.567636 31.2225 3.51181 24.1146C6.45599 17.0067 11.4418 10.9315 17.8387 6.65724C24.2356 2.38295 31.7564 0.101563 39.4499 0.101562C49.7666 0.101563 59.6607 4.19985 66.9557 11.4948C74.2507 18.7898 78.349 28.684 78.349 39.0006Z" fill="white"/>
</g>
<defs>
<clipPath id="clip0_185192_7650">
<rect width="77.7982" height="77.7982" fill="white" transform="translate(0.550781)"/>
</clipPath>
</defs>
</svg>
