<svg width="78" height="28" viewBox="0 0 78 28" fill="none" xmlns="http://www.w3.org/2000/svg">
<path d="M77.7976 0.384766L20.8817 24.6189C16.162 26.6157 12.1975 27.6174 8.99157 27.6174C5.36099 27.6174 2.72557 26.3467 1.09181 23.802C0.0642283 22.1683 -0.23724 20.0969 0.184167 17.5846C0.605574 15.0724 1.72716 12.3981 3.54245 9.55198C5.05628 7.25045 7.53609 4.22605 10.9884 0.47553C9.81741 2.31891 8.95873 4.34293 8.44698 6.46599C7.53934 10.3397 8.35622 13.1826 10.8976 14.9979C12.1067 15.8439 13.7697 16.2686 15.8897 16.2686C17.5818 16.2686 19.4878 15.9963 21.6078 15.4517L77.7976 0.384766Z" fill="white"/>
</svg>
