<svg width="65" height="65" viewBox="0 0 65 65" fill="none" xmlns="http://www.w3.org/2000/svg">
<rect x="1.11347" y="1.12128" width="61.9524" height="61.9524" rx="30.9762" fill="#FFDAD4"/>
<g clip-path="url(#clip0_186761_1236)">
<path fill-rule="evenodd" clip-rule="evenodd" d="M43.9809 21.6657C45.2913 22.0165 46.3212 23.0462 46.6719 24.3567C47.3059 26.7294 47.3083 31.6829 47.3083 31.6829C47.3083 31.6829 47.3083 36.6363 46.6719 39.009C46.3212 40.3195 45.2913 41.3492 43.9809 41.6999C41.6083 42.3363 32.0897 42.3363 32.0897 42.3363C32.0897 42.3363 22.5712 42.3363 20.1984 41.6999C18.888 41.3492 17.8583 40.3195 17.5075 39.009C16.8711 36.6363 16.8711 31.6829 16.8711 31.6829C16.8711 31.6829 16.8711 26.7294 17.5075 24.3567C17.8583 23.0462 18.888 22.0165 20.1984 21.6657C22.5712 21.0293 32.0897 21.0293 32.0897 21.0293C32.0897 21.0293 41.6083 21.0293 43.9809 21.6657ZM36.9506 31.6833L29.0431 36.2483V27.1181L36.9506 31.6833Z" stroke="#FF0000" stroke-width="2.21362" stroke-linejoin="round"/>
</g>
<rect x="1.11347" y="1.12128" width="61.9524" height="61.9524" rx="30.9762" stroke="white" stroke-width="2.24256"/>
<defs>
<clipPath id="clip0_186761_1236">
<rect width="33.2043" height="33.2043" fill="white" transform="translate(15.4883 15.4951)"/>
</clipPath>
</defs>
</svg>
